<svg id="Layer_1" enable-background="new 0 0 478.342 478.342" height="512" viewBox="0 0 478.342 478.342" width="512" xmlns="http://www.w3.org/2000/svg"><path d="m275.918 342.249c4.649 2.245 5.979 8.238 2.724 12.246l-42.712 52.57c-4.255 5.25-12.693 3.141-14.04-3.42l-16.824-81.345c-1.343-6.495 5.345-11.71 11.316-8.823 19.473 9.416 41.227 19.929 59.536 28.772zm176.5-331.537c3.064-3.201-.577-8.269-4.588-6.387l-408.229 191.449c-6.065 2.847-6.151 11.501-.08 14.45l146.488 70.801c3.123 1.509 6.862.835 9.26-1.671zm-238.419 272.214c-3.757 3.925-2.591 10.374 2.3 12.738 223.252 107.913 209.196 101.519 211.872 101.519 4.155 0 7.503-3.125 7.95-7.1l42.194-372.899c.431-3.805-4.216-5.982-6.864-3.216zm-205.444 191.478c29.592-2.058 55.735-13.164 77.285-34.135 27.504 11.341 58.39-1.578 76.554-25.734 2.655-3.531 1.945-8.547-1.586-11.202-3.532-2.656-8.547-1.945-11.202 1.587-12.57 16.716-32.961 27.088-52.043 22.401 45.756-57.441 10.155-94.808-15.221-94.808-16.379.054-29.182 13.238-34.604 26.281-9.036 21.733.835 54.874 23.745 73-18.32 16.586-40.197 24.99-64.037 26.648-4.408.307-7.732 4.128-7.426 8.535.31 4.468 4.202 7.741 8.535 7.427zm93.002-110.78c6.714 15.209-3.112 37.992-18.882 56.595-18.428-13.601-26.453-40.15-20.163-55.281 2.761-6.641 10.345-16.424 19.926-16.424 8.086-.001 15.883 7.777 19.119 15.11z"/></svg>